<svg id="Layer_1" data-name="Layer 1" xmlns="http://www.w3.org/2000/svg" xmlns:xlink="http://www.w3.org/1999/xlink" viewBox="0 0 1598.27 1508.84"><defs><style>.cls-1{fill:none;}.cls-2{fill:#ffa42c;}.cls-3{fill:url(#New_Pattern);}</style><pattern id="New_Pattern" data-name="New Pattern" width="2200.25" height="170.24" patternUnits="userSpaceOnUse" viewBox="0 0 2200.25 170.24"><rect class="cls-1" width="2200.25" height="170.24"/><rect class="cls-2" y="141.19" width="2200.25" height="12.32"/><rect class="cls-1" y="152.92" width="2200.25" height="12.32"/><rect class="cls-2" y="107.14" width="2200.25" height="12.32"/><rect class="cls-1" y="118.87" width="2200.25" height="12.32"/><rect class="cls-2" y="73.1" width="2200.25" height="12.32"/><rect class="cls-1" y="84.83" width="2200.25" height="12.32"/><rect class="cls-2" y="39.05" width="2200.25" height="12.32"/><rect class="cls-1" y="50.78" width="2200.25" height="12.32"/><rect class="cls-2" y="5" width="2200.25" height="12.32"/><rect class="cls-1" y="16.73" width="2200.25" height="12.32"/></pattern></defs><path class="cls-3" d="M1050.34,1134.85c-55.61,18.38-111.87,34.46-169.64,44.32-90.6,15.46-181.26,20.61-271-5.49C552,1156.89,500,1129.4,452.62,1091.76c-38.47-30.53-73.75-63.65-104.17-102l-1.67-2.1c-1.27-1.61-2.56-3.25-3.85-4.92A729.58,729.58,0,0,1,224.56,757.18l-16.08-50.26c-3.7-11.56-7.79-23-11.77-34.44-10-28.76-14.05-59-19-88.81-19.57-119.06-22.44-238.7-7-358.44C186,106.53,219-6.52,287.31-106.39c62.7-91.73,142.9-161.89,252.63-192.43,66.78-18.59,134.85-20.95,203.52-15.33,98,8,193.12,30.8,288.16,54.18,100.42,24.69,201.81,45.57,300.16,78.28,78.39,26.08,153,59.5,220.12,108.45C1635.58-12.18,1691,69.36,1724,166.5c54.91,161.52,41.78,321.12-13.65,479.92-55.08,157.81-163.41,267.47-306.77,346.87-111.87,62-232.55,101.69-353.22,141.56" transform="translate(-160.87 316.83)"/></svg>