<svg id="Layer_1" data-name="Layer 1" xmlns="http://www.w3.org/2000/svg" xmlns:xlink="http://www.w3.org/1999/xlink" viewBox="0 0 1747.15 1449.2"><defs><style>.cls-1{fill:none;}.cls-2{fill:#82a2cc;}.cls-3{fill:url(#New_Pattern_2);}</style><pattern id="New_Pattern_2" data-name="New Pattern 2" width="261.75" height="172.77" patternUnits="userSpaceOnUse" viewBox="0 0 261.75 172.77"><rect class="cls-1" width="261.75" height="172.77"/><rect class="cls-2" y="143.22" width="261.75" height="12.55"/><rect class="cls-1" y="155.22" width="261.75" height="12.55"/><rect class="cls-2" y="108.66" width="261.75" height="12.55"/><rect class="cls-1" y="120.66" width="261.75" height="12.55"/><rect class="cls-2" y="74.11" width="261.75" height="12.55"/><rect class="cls-1" y="86.11" width="261.75" height="12.55"/><rect class="cls-2" y="39.55" width="261.75" height="12.55"/><rect class="cls-1" y="51.55" width="261.75" height="12.55"/><rect class="cls-2" y="5" width="261.75" height="12.55"/><rect class="cls-1" y="17" width="261.75" height="12.55"/></pattern></defs><path class="cls-3" d="M-1088,1936.64q5.68-3.84,11.46-7.75a935.54,935.54,0,0,1,518.28-161.06c261.23-1.66,592,35,679.91,268.76,11.44,30.41,23.14,60.72,35.62,90.71,65.37,157.09,87.89,281.87,32.94,429.1-33.52,89.81-53.78,184.07-58.71,279.78-12.3,238.74-89,369.44-401.83,377.17-19.28.48-38.54,1.39-57.79,2.6-171.52,10.8-277.08-64.89-366.08-169-160-187.21-366.59-328.81-599.69-408.69-294-100.78-337.45-459.4,38.07-612.48A924.56,924.56,0,0,0-1088,1936.64Z" transform="translate(1525.98 -1767.78)"/></svg>